<svg id="svg" version="1.1" xmlns="http://www.w3.org/2000/svg" xmlns:xlink="http://www.w3.org/1999/xlink" width="400" height="310.15736766809727" viewBox="0, 0, 400,310.15736766809727"><g id="svgg"><path id="path0" d="M166.020 106.657 C 173.362 106.877,180.224 106.884,180.092 106.672 C 180.013 106.544,176.151 106.468,171.510 106.504 C 166.869 106.540,164.399 106.609,166.020 106.657 M160.671 106.969 C 161.057 107.043,161.615 107.040,161.912 106.963 C 162.209 106.885,161.893 106.824,161.210 106.828 C 160.528 106.831,160.285 106.895,160.671 106.969 M157.797 107.370 C 157.406 107.538,157.348 107.637,157.642 107.637 C 157.898 107.637,158.386 107.517,158.728 107.370 C 159.119 107.202,159.176 107.103,158.883 107.103 C 158.627 107.103,158.138 107.223,157.797 107.370 M191.304 115.671 C 185.899 120.407,181.214 124.327,180.893 124.381 C 180.347 124.473,180.305 124.173,180.217 119.571 L 180.123 114.663 180.054 119.783 L 179.985 124.903 161.753 124.748 L 143.522 124.593 143.522 122.731 C 143.522 120.463,144.509 117.805,146.299 115.253 C 147.425 113.646,148.580 112.547,151.590 110.218 L 152.521 109.498 151.481 110.063 C 148.363 111.756,145.097 115.680,143.537 119.606 C 142.384 122.505,142.307 124.434,142.588 143.134 L 142.820 158.573 143.481 158.568 C 143.963 158.564,144.030 158.492,143.728 158.300 C 143.313 158.037,145.624 155.929,167.075 136.997 C 171.324 133.247,175.514 129.609,176.384 128.912 C 177.255 128.216,178.159 127.413,178.393 127.128 C 179.651 125.598,179.674 125.872,179.674 142.101 L 179.674 157.592 177.580 157.817 C 176.427 157.940,169.061 158.137,161.210 158.254 L 146.936 158.467 168.104 158.520 L 189.272 158.573 190.444 157.564 C 192.718 155.606,223.291 128.514,225.756 126.272 C 226.439 125.651,229.791 122.665,233.204 119.636 C 236.618 116.607,240.528 113.120,241.893 111.887 C 243.258 110.654,244.923 109.168,245.591 108.585 L 246.807 107.525 245.902 107.329 C 245.404 107.221,235.127 107.117,223.064 107.096 L 201.133 107.060 191.304 115.671 M142.567 162.891 C 142.256 163.197,142.472 163.815,142.840 163.673 C 143.277 163.506,149.632 169.014,159.512 178.123 C 164.367 182.599,165.139 183.403,164.997 183.830 C 164.860 184.241,144.748 184.389,143.951 183.985 C 143.220 183.614,142.999 181.497,142.758 172.537 C 142.546 164.698,142.544 164.745,142.490 177.545 C 142.440 189.455,142.478 190.515,142.979 191.083 C 143.278 191.422,144.988 192.956,146.780 194.492 C 148.573 196.028,154.019 200.738,158.883 204.959 C 167.349 212.306,169.226 213.931,176.568 220.265 C 178.358 221.810,179.842 223.049,179.865 223.019 C 180.060 222.767,180.281 213.764,180.287 205.818 C 180.293 197.911,180.372 196.121,180.712 196.121 C 181.066 196.121,186.560 200.778,191.472 205.242 C 192.243 205.943,193.849 207.369,195.041 208.410 C 196.232 209.452,200.212 212.943,203.884 216.168 C 207.556 219.394,211.087 222.486,211.730 223.041 L 212.900 224.050 235.834 224.050 C 248.846 224.050,258.842 223.931,258.939 223.774 C 259.032 223.623,258.168 222.702,257.018 221.728 L 254.926 219.958 256.943 221.868 L 258.960 223.779 241.893 223.605 C 232.506 223.509,223.394 223.345,221.645 223.239 L 218.464 223.047 218.464 206.170 C 218.464 196.888,218.569 189.296,218.697 189.299 C 218.825 189.302,219.373 189.686,219.914 190.152 C 222.153 192.081,223.881 193.510,224.489 193.936 C 224.845 194.185,225.694 194.903,226.377 195.531 C 227.060 196.159,228.107 197.070,228.704 197.556 C 229.302 198.041,229.860 198.515,229.946 198.609 C 230.031 198.703,233.941 202.075,238.635 206.103 C 243.328 210.130,248.879 214.916,250.970 216.737 C 253.061 218.558,254.771 219.978,254.771 219.893 C 254.771 219.750,244.364 210.608,220.171 189.497 C 214.709 184.732,209.752 180.395,209.154 179.860 C 208.083 178.901,192.296 165.189,190.265 163.454 L 189.219 162.560 165.959 162.661 C 153.166 162.716,142.640 162.820,142.567 162.891 " stroke="none" fill="#615dd6" fill-rule="evenodd"></path><path id="path1" d="M0.000 155.469 L 0.000 310.318 200.000 310.318 L 400.000 310.318 400.000 155.469 L 400.000 0.621 200.000 0.621 L 0.000 0.621 0.000 155.469 M180.321 106.143 C 180.885 106.444,180.915 106.903,180.915 114.984 C 180.915 120.705,181.022 123.507,181.240 123.507 C 181.518 123.507,189.568 116.545,197.336 109.587 C 198.602 108.453,200.063 107.209,200.583 106.823 L 201.528 106.121 224.507 106.139 C 237.146 106.148,247.664 106.266,247.881 106.400 C 248.723 106.921,248.499 107.144,236.927 117.300 C 229.965 123.410,217.075 134.799,216.912 134.984 C 216.827 135.080,215.640 136.117,214.275 137.287 C 212.909 138.458,211.164 139.991,210.396 140.695 C 209.628 141.399,207.882 142.951,206.517 144.145 C 205.151 145.338,203.964 146.385,203.879 146.470 C 203.514 146.835,198.341 151.383,197.207 152.336 C 196.524 152.909,195.268 154.029,194.414 154.824 C 193.561 155.619,192.047 156.927,191.050 157.731 L 189.237 159.193 166.014 159.193 C 145.316 159.193,142.738 159.140,142.303 158.706 C 141.616 158.018,141.586 124.714,142.270 121.851 C 144.269 113.482,151.889 107.182,161.210 106.189 C 164.893 105.797,179.608 105.761,180.321 106.143 M190.086 162.564 C 190.490 162.882,191.699 163.915,192.773 164.860 C 193.846 165.805,197.727 169.192,201.396 172.388 C 205.066 175.583,208.557 178.638,209.154 179.176 C 209.752 179.715,212.405 182.037,215.050 184.336 C 223.231 191.446,227.573 195.233,228.704 196.243 C 229.302 196.777,233.561 200.488,238.169 204.491 C 242.777 208.494,246.618 211.844,246.703 211.936 C 246.981 212.237,254.247 218.591,255.535 219.659 C 262.146 225.145,263.974 224.670,236.254 224.670 L 212.771 224.670 210.885 223.044 C 209.848 222.150,205.043 217.925,200.208 213.657 C 195.373 209.388,190.673 205.268,189.765 204.500 C 188.857 203.732,186.529 201.717,184.592 200.023 L 181.071 196.942 180.907 210.418 C 180.817 217.830,180.713 223.929,180.674 223.972 C 180.295 224.397,178.862 223.348,174.158 219.202 C 166.868 212.777,167.916 213.694,158.417 205.441 C 153.809 201.437,149.969 198.085,149.884 197.992 C 149.798 197.899,148.611 196.853,147.246 195.669 C 145.881 194.485,144.100 192.886,143.289 192.115 L 141.815 190.714 141.815 176.722 C 141.815 166.254,141.909 162.637,142.188 162.358 C 142.903 161.643,189.167 161.841,190.086 162.564 " stroke="none" fill="#0a273e" fill-rule="evenodd"></path><path id="path2" d="M100.026 0.543 C 155.125 0.586,245.195 0.586,300.181 0.543 C 355.167 0.500,310.085 0.465,200.000 0.465 C 89.915 0.465,44.926 0.500,100.026 0.543 M160.590 107.060 C 151.662 108.141,143.647 115.440,143.550 122.576 L 143.522 124.593 161.709 124.748 L 179.896 124.903 180.117 116.142 C 180.239 111.324,180.250 107.239,180.143 107.065 C 179.918 106.702,163.583 106.697,160.590 107.060 M178.393 127.128 C 178.159 127.413,177.255 128.216,176.384 128.912 C 175.514 129.609,171.324 133.247,167.075 136.997 C 146.090 155.517,143.309 158.050,143.723 158.264 C 144.230 158.528,175.519 158.089,177.956 157.785 L 179.674 157.570 179.674 142.090 C 179.674 125.873,179.651 125.598,178.393 127.128 M142.724 163.770 C 142.295 168.160,143.128 183.361,143.827 183.888 C 144.455 184.362,164.838 184.306,164.997 183.830 C 165.155 183.357,162.597 180.848,154.391 173.424 C 145.578 165.450,142.785 163.139,142.724 163.770 M218.464 206.170 L 218.464 223.047 221.645 223.239 C 223.394 223.345,232.506 223.513,241.893 223.614 L 258.960 223.796 258.185 223.036 C 257.309 222.178,249.351 215.284,237.859 205.429 C 233.592 201.769,230.031 198.699,229.946 198.607 C 229.860 198.514,229.302 198.041,228.704 197.556 C 228.107 197.070,227.060 196.159,226.377 195.531 C 225.694 194.903,224.845 194.185,224.489 193.936 C 223.881 193.510,222.153 192.081,219.914 190.152 C 219.373 189.686,218.825 189.302,218.697 189.299 C 218.569 189.296,218.464 196.888,218.464 206.170 " stroke="none" fill="#4e94eb" fill-rule="evenodd"></path><path id="path3" d="M100.026 0.233 C 155.125 0.276,245.195 0.276,300.181 0.233 C 355.167 0.190,310.085 0.154,200.000 0.154 C 89.915 0.154,44.926 0.190,100.026 0.233 " stroke="none" fill="#ececec" fill-rule="evenodd"></path><path id="path4" d="M161.210 106.189 C 151.889 107.182,144.269 113.482,142.270 121.851 C 141.586 124.714,141.616 158.018,142.303 158.706 C 142.738 159.140,145.316 159.193,166.014 159.193 L 189.237 159.193 191.050 157.731 C 192.047 156.927,193.561 155.619,194.414 154.824 C 195.268 154.029,196.524 152.909,197.207 152.336 C 198.341 151.383,203.514 146.835,203.879 146.470 C 203.964 146.385,205.151 145.338,206.517 144.145 C 207.882 142.951,209.628 141.399,210.396 140.695 C 211.164 139.991,212.909 138.458,214.275 137.287 C 215.640 136.117,216.827 135.080,216.912 134.984 C 217.075 134.799,229.965 123.410,236.927 117.300 C 248.499 107.144,248.723 106.921,247.881 106.400 C 247.664 106.266,237.146 106.148,224.507 106.139 L 201.528 106.121 200.583 106.823 C 200.063 107.209,198.602 108.453,197.336 109.587 C 189.568 116.545,181.518 123.507,181.240 123.507 C 181.022 123.507,180.915 120.705,180.915 114.984 C 180.915 106.903,180.885 106.444,180.321 106.143 C 179.608 105.761,164.893 105.797,161.210 106.189 M180.222 115.537 C 180.301 124.107,180.329 124.475,180.890 124.381 C 181.213 124.327,185.899 120.407,191.304 115.671 L 201.133 107.060 223.064 107.096 C 235.127 107.117,245.404 107.221,245.902 107.329 L 246.807 107.525 245.591 108.585 C 244.923 109.168,243.258 110.654,241.893 111.887 C 240.528 113.120,236.618 116.607,233.204 119.636 C 229.791 122.665,226.439 125.651,225.756 126.272 C 223.291 128.514,192.718 155.606,190.444 157.564 L 189.272 158.573 166.046 158.573 L 142.820 158.573 142.588 143.134 C 142.307 124.434,142.384 122.505,143.537 119.606 C 145.958 113.513,150.507 109.577,157.651 107.392 C 159.799 106.735,163.498 106.515,171.761 106.555 L 180.140 106.594 180.222 115.537 M142.188 162.358 C 141.909 162.637,141.815 166.254,141.815 176.722 L 141.815 190.714 143.289 192.115 C 144.100 192.886,145.881 194.485,147.246 195.669 C 148.611 196.853,149.798 197.899,149.884 197.992 C 149.969 198.085,153.809 201.437,158.417 205.441 C 167.916 213.694,166.868 212.777,174.158 219.202 C 178.862 223.348,180.295 224.397,180.674 223.972 C 180.713 223.929,180.817 217.830,180.907 210.418 L 181.071 196.942 184.592 200.023 C 186.529 201.717,188.857 203.732,189.765 204.500 C 190.673 205.268,195.373 209.388,200.208 213.657 C 205.043 217.925,209.848 222.150,210.885 223.044 L 212.771 224.670 236.254 224.670 C 263.974 224.670,262.146 225.145,255.535 219.659 C 254.247 218.591,246.981 212.237,246.703 211.936 C 246.618 211.844,242.777 208.494,238.169 204.491 C 233.561 200.488,229.302 196.777,228.704 196.243 C 227.573 195.233,223.231 191.446,215.050 184.336 C 212.405 182.037,209.752 179.715,209.154 179.176 C 208.557 178.638,205.066 175.583,201.396 172.388 C 197.727 169.192,193.846 165.805,192.773 164.860 C 191.699 163.915,190.490 162.882,190.086 162.564 C 189.167 161.841,142.903 161.643,142.188 162.358 M190.265 163.454 C 192.380 165.261,208.103 178.919,209.154 179.863 C 209.752 180.398,215.407 185.345,221.722 190.855 C 252.906 218.064,259.088 223.533,258.935 223.781 C 258.843 223.929,248.448 224.050,235.834 224.050 L 212.900 224.050 211.730 223.041 C 211.087 222.486,207.556 219.394,203.884 216.168 C 200.212 212.943,196.232 209.452,195.041 208.410 C 193.849 207.369,192.243 205.943,191.472 205.242 C 186.560 200.778,181.066 196.121,180.712 196.121 C 180.372 196.121,180.293 197.911,180.287 205.818 C 180.281 213.764,180.060 222.767,179.865 223.019 C 179.814 223.085,174.554 218.558,158.883 204.959 C 154.019 200.738,148.573 196.028,146.780 194.492 C 144.988 192.956,143.278 191.422,142.979 191.083 C 142.470 190.505,142.074 163.377,142.567 162.891 C 142.640 162.820,153.166 162.716,165.959 162.661 L 189.219 162.560 190.265 163.454 " stroke="none" fill="#2e3d7d" fill-rule="evenodd"></path></g></svg>